<?xml version="1.0" encoding="UTF-8"?>
<svg version="1.1" xmlns="http://www.w3.org/2000/svg" width="256" height="256">
<path d="M0 0 C84.48 0 168.96 0 256 0 C256 84.48 256 168.96 256 256 C171.52 256 87.04 256 0 256 C0 171.52 0 87.04 0 0 Z " fill="#030303" transform="translate(0,0)"/>
<path d="M0 0 C2.01457011 -0.00431232 4.02898655 -0.04114847 6.04321289 -0.07861328 C15.02681201 -0.10531046 24.80136922 0.2143311 31.92382812 6.36352539 C34.00935249 8.59102907 35.80701265 10.91239139 37.61547852 13.37060547 C38.44331685 14.45645397 39.2728261 15.54103006 40.10375977 16.62451172 C42.30750522 19.51583935 44.47010976 22.43562182 46.61547852 25.37060547 C47.53329102 25.22623047 48.45110352 25.08185547 49.39672852 24.93310547 C66.88340815 22.28806149 66.88340815 22.28806149 71.11547852 24.93310547 C73.19940669 28.31948875 73.17349949 30.46445865 72.61547852 34.37060547 C69.76009774 37.98653159 67.31113789 39.03967353 62.86547852 39.99560547 C61.80329102 40.23150391 60.74110352 40.46740234 59.64672852 40.71044922 C58.64641602 40.92830078 57.64610352 41.14615234 56.61547852 41.37060547 C55.19745064 41.76153439 53.78055005 42.156607 52.36547852 42.55810547 C47.21529792 43.67397793 42.74160925 44.63615948 37.99047852 41.80810547 C29.61547852 33.21271073 29.61547852 33.21271073 29.61547852 30.37060547 C26.67483089 31.84092928 26.43274176 33.84236632 25.23266602 36.86669922 C24.78793945 37.98238281 24.34321289 39.09806641 23.88500977 40.24755859 C23.42481445 41.42253906 22.96461914 42.59751953 22.49047852 43.80810547 C21.78858398 45.56477539 21.78858398 45.56477539 21.07250977 47.35693359 C18.64321713 52.70785447 18.64321713 52.70785447 17.61547852 58.37060547 C19.14385121 59.76659943 20.74197951 61.08648196 22.36547852 62.37060547 C23.3593457 63.16724609 24.35321289 63.96388672 25.37719727 64.78466797 C25.90490723 65.20522461 26.43261719 65.62578125 26.97631836 66.05908203 C29.73084448 68.26303114 32.45746587 70.49989142 35.17797852 72.74560547 C36.16926758 73.55771484 37.16055664 74.36982422 38.18188477 75.20654297 C41.40531471 78.07296382 42.53422005 79.59865006 42.99047852 83.93310547 C42.90367151 87.24406643 42.21552786 89.68983386 40.90063477 92.71826172 C39.1463733 96.9446141 37.63667382 101.2011298 36.21313477 105.55029297 C35.79336319 106.82117596 35.37343968 108.09200877 34.95336914 109.36279297 C34.30930748 111.31545177 33.67045289 113.26919021 33.04541016 115.22802734 C32.42899169 117.15287448 31.79007194 119.07046976 31.15063477 120.98779297 C30.78333252 122.11813965 30.41603027 123.24848633 30.03759766 124.41308594 C28.39364037 127.83195265 26.8021441 129.35141129 23.61547852 131.37060547 C19.6961041 131.4505927 18.16449961 130.86183487 15.24047852 128.24560547 C13.18596759 124.61070152 13.33443798 122.51818065 13.61547852 118.37060547 C14.64111328 114.97729492 14.64111328 114.97729492 16.05688477 111.48388672 C16.30341293 110.85959274 16.5499411 110.23529877 16.80393982 109.59208679 C17.58408726 107.61773302 18.37911914 105.64995568 19.17797852 103.68310547 C20.23376697 101.07992606 21.27447852 98.47141285 22.30688477 95.85888672 C22.77296143 94.7094458 23.23903809 93.56000488 23.71923828 92.37573242 C24.61843782 89.36068282 24.95777634 88.17052798 23.61547852 85.37060547 C22.11867413 83.7006863 22.11867413 83.7006863 20.19360352 82.24169922 C19.49750977 81.68160156 18.80141602 81.12150391 18.08422852 80.54443359 C17.35204102 79.97144531 16.61985352 79.39845703 15.86547852 78.80810547 C15.14875977 78.23125 14.43204102 77.65439453 13.69360352 77.06005859 C10.13259583 74.22238059 6.6117074 71.5811179 2.61547852 69.37060547 C2.54071289 69.90685547 2.46594727 70.44310547 2.38891602 70.99560547 C1.41681417 76.79009491 -0.23730779 82.18470013 -2.25952148 87.68310547 C-2.50395996 88.364375 -2.74839844 89.04564453 -3.00024414 89.74755859 C-4.57409097 93.90766833 -6.18317541 97.25834032 -9.38452148 100.37060547 C-12.66967773 101.84716797 -12.66967773 101.84716797 -16.44702148 102.99560547 C-17.44403076 103.30244263 -17.44403076 103.30244263 -18.46118164 103.61547852 C-19.80344236 104.02461767 -21.14818195 104.42571907 -22.49536133 104.81835938 C-24.16929965 105.30769105 -25.83435075 105.82720164 -27.49780273 106.35107422 C-32.97743103 108.00193819 -38.66447615 109.61409359 -44.38452148 108.37060547 C-47.00952148 106.30810547 -47.00952148 106.30810547 -48.38452148 103.37060547 C-48.45442802 99.38593316 -48.22833903 97.28040052 -45.48608398 94.32373047 C-41.126735 91.57854849 -36.69823922 90.73759951 -31.69702148 89.68310547 C-29.79687264 89.26438546 -27.89711178 88.84389968 -25.99780273 88.42138672 C-25.16031494 88.24260986 -24.32282715 88.06383301 -23.45996094 87.87963867 C-21.34112908 87.4411106 -21.34112908 87.4411106 -19.38452148 86.37060547 C-18.65184331 84.30196644 -18.65184331 84.30196644 -18.12280273 81.76123047 C-17.78116089 80.30450928 -17.78116089 80.30450928 -17.43261719 78.81835938 C-17.18987061 77.76310059 -16.94712402 76.7078418 -16.69702148 75.62060547 C-11.62066706 54.60845213 -4.02471519 35.16649231 4.61547852 15.37060547 C0.65547852 15.37060547 -3.30452148 15.37060547 -7.38452148 15.37060547 C-8.04452148 16.69060547 -8.70452148 18.01060547 -9.38452148 19.37060547 C-11.14234425 21.58043981 -12.91803788 23.73351529 -14.75952148 25.87060547 C-15.24163086 26.43908203 -15.72374023 27.00755859 -16.22045898 27.59326172 C-23.62176608 36.26164041 -23.62176608 36.26164041 -27.44702148 36.80810547 C-30.38452148 36.37060547 -30.38452148 36.37060547 -32.25952148 35.30810547 C-33.58255646 33.02954524 -34.109407 31.14757396 -33.98217773 28.50341797 C-32.56173747 23.43439585 -28.60451958 19.41756937 -25.38452148 15.37060547 C-24.49685116 14.19750635 -23.61283146 13.02163736 -22.73217773 11.84326172 C-21.84593875 10.66451544 -20.95922783 9.48612382 -20.07202148 8.30810547 C-19.65194824 7.74784668 -19.231875 7.18758789 -18.79907227 6.61035156 C-13.28496646 -0.59188146 -8.58474603 -0.00205205 0 0 Z " fill="#FAFAFA" transform="translate(113.384521484375,74.62939453125)"/>
<path d="M0 0 C5.13157913 4.33081256 10.0664746 8.81688367 14.9375 13.4375 C16.4347916 14.85167287 17.93219013 16.26573252 19.4296875 17.6796875 C20.18604492 18.39479492 20.94240234 19.10990234 21.72167969 19.84667969 C25.33027849 23.25729279 28.94462872 26.66172684 32.5625 30.0625 C33.19212646 30.65667725 33.82175293 31.25085449 34.47045898 31.86303711 C38.88952091 36.0155877 43.41352532 40.03338019 48 44 C46.20691005 47.86010998 43.91976852 50.31437835 40.875 53.3125 C40.38290039 53.7981543 39.89080078 54.28380859 39.38378906 54.78417969 C35.97482259 58.12217223 32.45540844 61.29416353 28.828125 64.390625 C26.35552268 66.56736038 24.07693362 68.91264771 21.76953125 71.26171875 C19.96989519 73.02957316 18.10398088 74.67254542 16.1875 76.3125 C11.90471252 79.9834607 8.0117293 83.99710471 4.1015625 88.05859375 C2 90 2 90 0 90 C-0.20504349 86.64675035 -0.32818195 83.29512597 -0.4375 79.9375 C-0.49615234 78.99455078 -0.55480469 78.05160156 -0.61523438 77.08007812 C-0.78430942 70.14800129 -0.78430942 70.14800129 1.453125 66.87304688 C3.2167273 65.09628337 5.02314359 63.53328759 7 62 C7.69867188 61.37351563 8.39734375 60.74703125 9.1171875 60.1015625 C9.98730469 59.37066406 9.98730469 59.37066406 10.875 58.625 C15.48846074 54.65380536 19.74242456 50.34627493 24 46 C22.92100995 42.76302985 22.416939 42.29675608 19.875 40.25 C19.17117187 39.62867188 18.46734375 39.00734375 17.7421875 38.3671875 C16.235733 37.06674387 14.71769631 35.77800868 13.15332031 34.54785156 C0.95407587 24.87218209 0.95407587 24.87218209 -0.67529297 18.25927734 C-1.28620754 12.1326181 -0.85715667 6.08449364 0 0 Z " fill="#FAFAFA" transform="translate(195,83)"/>
<path d="M0 0 C1.62480122 19.21514925 1.62480122 19.21514925 -1.734375 24.97265625 C-4.125 27 -4.125 27 -6.84375 28.83984375 C-10.93558568 31.6403204 -14.18027451 35.01674329 -17.625 38.5625 C-18.84542719 39.79388817 -20.06670602 41.0244332 -21.2890625 42.25390625 C-22.18367188 43.16011719 -23.07828125 44.06632812 -24 45 C-22.61568863 48.15272163 -21.03527194 50.16290591 -18.515625 52.49609375 C-17.82726562 53.13740234 -17.13890625 53.77871094 -16.4296875 54.43945312 C-15.71039063 55.09880859 -14.99109375 55.75816406 -14.25 56.4375 C-13.54617187 57.09298828 -12.84234375 57.74847656 -12.1171875 58.42382812 C-11.42367187 59.06642578 -10.73015625 59.70902344 -10.015625 60.37109375 C-9.33773926 61.00362061 -8.65985352 61.63614746 -7.96142578 62.2878418 C-6.0866294 64.00329093 -6.0866294 64.00329093 -4.15966797 65.20629883 C-2.5078125 66.296875 -2.5078125 66.296875 0 69 C0.71548985 72.63518655 0.56809492 76.12636742 0.375 79.8125 C0.33439453 81.28106445 0.33439453 81.28106445 0.29296875 82.77929688 C0.22245648 85.18846621 0.12398568 87.59308819 0 90 C-4.02654194 88.1527997 -6.71593076 85.47493371 -9.75 82.3125 C-13.64380913 78.27962625 -17.65976645 74.50580617 -21.90283203 70.84106445 C-26.29867837 66.98203334 -30.49521275 62.90430704 -34.73242188 58.87304688 C-39.05248231 54.78097871 -43.44863602 50.8336719 -48 47 C-47.17669723 42.87215629 -45.59677777 41.42747112 -42.375 38.6875 C-39.27410455 35.99623989 -36.24183656 33.31483471 -33.375 30.375 C-31.10253666 28.0563556 -28.76127047 25.88316366 -26.30078125 23.765625 C-22.045299 20.06456794 -17.91807394 16.24091842 -13.8125 12.375 C-12.78479492 11.41207031 -12.78479492 11.41207031 -11.73632812 10.4296875 C-8.80330815 7.67451186 -5.89195849 4.91240887 -3.07421875 2.0390625 C-1 0 -1 0 0 0 Z " fill="#F9F9F9" transform="translate(61,83)"/>
<path d="M0 0 C4.13240287 2.34740045 7.02765388 4.97127214 8.8125 9.4375 C9.67953782 14.64739983 9.61968996 19.60298172 7.1875 24.375 C3.97665259 28.51530324 0.76857025 30.78547658 -4.1875 32.4375 C-10.56715089 33.20745787 -14.08767101 32.02409795 -19.265625 28.203125 C-23.33092572 24.46833654 -24.31801989 20.25547899 -24.625 14.9375 C-24.44331681 10.08986216 -23.02841585 7.35335698 -20.1875 3.4375 C-14.22713191 -2.0867436 -7.45182651 -3.30251402 0 0 Z " fill="#FAFAFA" transform="translate(152.1875,42.5625)"/>
<path d="M0 0 C4.75 0.75 4.75 0.75 7 3 C6.34 3 5.68 3 5 3 C5 3.66 5 4.32 5 5 C0.545 4.01 0.545 4.01 -4 3 C-2.68 2.67 -1.36 2.34 0 2 C0 1.34 0 0.68 0 0 Z " fill="#222222" transform="translate(135,73)"/>
</svg>
